<svg width="425" height="449" viewBox="0 0 425 449" fill="none" xmlns="http://www.w3.org/2000/svg">
<path fill-rule="evenodd" clip-rule="evenodd" d="M0.380525 274.509L199.786 0.112665L399.422 274.444L310.795 274.031C310.795 274.031 203.371 127.005 202.016 124.545C200.67 122.084 92.6164 274.242 92.6164 274.242L0.380525 274.509Z" fill="#505668"/>
<path fill-rule="evenodd" clip-rule="evenodd" d="M200.824 204.558L178.222 237.622L227.01 237.594L200.824 204.558Z" fill="#505668"/>
<path fill-rule="evenodd" clip-rule="evenodd" d="M174.812 243.46L152.605 274.36L251.998 274.398L229.991 243.658" fill="#505668"/>
<path d="M101.071 383.788C103.153 383.788 104.194 384.956 104.195 387.292C104.195 389.222 102.722 391.152 99.7768 393.081C94.2926 396.687 89.6716 399.048 85.9138 400.165C78.8553 402.247 71.4413 403.288 63.6718 403.287C55.9022 403.287 48.4119 401.916 41.2009 399.174C34.0406 396.38 27.9213 392.496 22.843 387.519C12.2294 377.058 6.9222 363.55 6.92157 346.995C6.92126 339.022 8.41903 331.71 11.4149 325.058C14.4107 318.355 18.5492 312.616 23.8302 307.843C35.0017 297.738 49.0425 292.685 65.9527 292.686C75.4488 292.686 83.8024 294.311 91.0134 297.561C98.6815 300.964 102.516 303.859 102.516 306.245C102.516 307.21 102.186 308.048 101.526 308.759C100.916 309.47 100.205 309.825 99.3928 309.825C97.7678 309.825 96.2951 309.114 94.9748 307.692C93.6544 306.22 91.8516 304.899 89.5664 303.731C87.332 302.563 84.8691 301.548 82.1776 300.684C76.6932 299.008 71.6912 298.17 67.1717 298.17C62.7029 298.17 58.9959 298.475 56.0506 299.084L56.0543 396.736C59.609 397.346 62.7575 397.651 65.4997 397.651C68.2419 397.651 71.0348 397.473 73.8786 397.118C76.7223 396.762 79.5152 396.178 82.2574 395.366C88.4019 393.538 93.0228 390.847 96.1204 387.292C97.2375 385.972 98.1261 385.058 98.7863 384.55C99.4464 384.042 100.208 383.788 101.071 383.788ZM165.94 396.815C159.44 401.131 152.229 403.29 144.307 403.289C133.796 403.289 125.366 400.648 119.018 395.367C112.416 389.933 109.115 382.392 109.115 372.744C109.114 364.212 112.39 357.205 118.94 351.72C125.643 346.185 134.453 343.418 145.371 343.418C152.684 343.418 159.539 344.815 165.938 347.608L165.937 326.661C161.316 325.341 157.228 324.68 153.673 324.68C150.17 324.68 147.199 324.832 144.761 325.137C142.324 325.442 140.013 325.899 137.83 326.508C133.107 327.828 129.527 329.605 127.09 331.84C125.668 333.16 124.373 333.82 123.205 333.82C122.037 333.82 121.148 333.541 120.539 332.982C119.93 332.373 119.625 331.713 119.625 331.002C119.625 330.291 119.752 329.656 120.006 329.097C120.26 328.488 120.742 327.879 121.453 327.269C122.976 325.949 125.515 324.629 129.07 323.309C136.433 320.516 143.822 319.119 151.236 319.12C173.783 319.12 188.179 324.503 194.426 335.269C197.168 340.043 198.54 346.314 198.54 354.084L198.542 401.843L165.94 401.843L165.94 396.815ZM165.938 353.55C159.54 350.452 153.167 348.903 146.819 348.903C145.803 348.903 144.838 348.979 143.924 349.131L143.926 397.576C144.18 397.627 144.459 397.653 144.764 397.653C145.069 397.653 145.373 397.653 145.678 397.653C152.635 397.653 159.389 395.19 165.94 390.264L165.938 353.55ZM214.579 294.061L247.333 294.061L247.335 352.181L279.403 328.949C282.45 326.664 284.887 324.455 286.715 322.322C288.543 320.189 290.092 319.123 291.362 319.123C293.647 319.123 294.789 320.063 294.789 321.941C294.789 323.363 293.926 324.785 292.2 326.207L272.776 341.212L300.81 401.846L266.761 401.845L247.336 358.884L247.337 401.845L214.583 401.844L214.579 294.061ZM357.832 396.82C351.332 401.136 344.121 403.294 336.2 403.294C325.688 403.294 317.258 400.653 310.91 395.371C304.308 389.938 301.007 382.397 301.007 372.748C301.007 364.217 304.282 357.209 310.832 351.725C317.535 346.19 326.346 343.423 337.264 343.423C344.576 343.423 351.432 344.82 357.83 347.613L357.829 326.666C353.208 325.345 349.12 324.685 345.566 324.685C342.062 324.685 339.091 324.837 336.654 325.142C334.216 325.446 331.906 325.903 329.722 326.513C324.999 327.833 321.419 329.61 318.982 331.844C317.56 333.165 316.265 333.825 315.097 333.825C313.929 333.825 313.041 333.545 312.431 332.987C311.822 332.377 311.517 331.717 311.517 331.006C311.517 330.295 311.644 329.661 311.898 329.102C312.152 328.493 312.634 327.883 313.345 327.274C314.868 325.954 317.407 324.633 320.962 323.313C328.325 320.52 335.714 319.124 343.128 319.124C365.675 319.125 380.071 324.508 386.318 335.274C389.06 340.047 390.432 346.319 390.432 354.088L390.434 401.848L357.832 401.847L357.832 396.82ZM357.83 353.554C351.432 350.456 345.059 348.907 338.711 348.907C337.695 348.907 336.731 348.983 335.817 349.136L335.818 397.581C336.072 397.632 336.352 397.657 336.656 397.657C336.961 397.657 337.266 397.657 337.57 397.657C344.527 397.657 351.281 395.195 357.832 390.269L357.83 353.554Z" fill="#505668"/>
</svg>
