<?xml version="1.0" encoding="UTF-8" standalone="no"?><!DOCTYPE svg PUBLIC "-//W3C//DTD SVG 1.1//EN" "http://www.w3.org/Graphics/SVG/1.1/DTD/svg11.dtd"><svg width="100%" height="100%" viewBox="0 0 2481 2481" version="1.1" xmlns="http://www.w3.org/2000/svg" xmlns:xlink="http://www.w3.org/1999/xlink" xml:space="preserve" xmlns:serif="http://www.serif.com/" style="fill-rule:evenodd;clip-rule:evenodd;stroke-linecap:round;stroke-linejoin:round;stroke-miterlimit:1.5;"><g id="logofic"><path d="M1933.085,1165.578c0,0 50.285,110.88 249.754,105.749c216.377,-5.565 256.958,-119.279 256.958,-119.279l0,617.855c0,0 10.711,43.465 -74.446,42.55c-85.157,-0.915 -114.07,-58.075 -114.07,-58.075c0,0 67.146,-102.489 67.522,-207.384c0.242,-67.763 -37.772,-101.826 -72.325,-122.04c-37.779,-22.102 -140.487,-26.501 -140.487,-26.501c0,0 -0.353,102.321 -0.125,207.221c0.155,71.107 -1.966,131.416 -6.855,153.854c-5.256,24.123 -29.889,45.842 -78.273,45.316c-47.162,-0.513 -77.636,-19.109 -83.342,-40.377c-4.374,-16.304 -3.659,-139.398 -3.405,-249.846c0.399,-173.57 -0.907,-349.042 -0.907,-349.042Z" style="fill:url(#_Linear1);"/><path id="M" d="M40.718,1801.649l7.204,-1030.235c0,0 -25.888,-387.78 459.884,-612.378c485.771,-224.597 315.41,371.963 750.463,379.434c368.557,6.329 256.648,-584.251 738.455,-377.032c341.217,146.753 427.655,412.606 441.098,568.683c9.361,108.69 1.302,243.034 -8.411,294.968c-44.619,238.569 -508.989,243.944 -512.596,-26.499c-3.694,-276.943 -400.582,-326.824 -400.387,0.965c0.511,858.783 -10.807,802.094 -10.807,802.094l-521.121,-3.602c0,0 -1.452,-387.082 -4.145,-767.747c-2.155,-304.547 -411.403,-341.216 -405.307,12.482c9.379,544.178 0,763.671 0,763.671l-534.329,-4.803Z" style="fill:url(#_Linear2);"/><path d="M712.548,90.895c0,0 258.473,-48.105 466.472,104.163c38.84,28.434 85.253,73.245 85.253,73.245c0,0 40.494,-40.707 80.466,-73.965c205.33,-170.84 482.681,-95.339 482.681,-95.339c0,0 -150.659,-2.157 -218.535,154.895c-26.859,62.146 -121.592,183.644 -159.02,211.723c-57.157,42.881 -115.88,57.915 -167.581,59.644c-57.335,1.917 -125.533,-5.418 -197.215,-58.793c-71.146,-52.977 -145.807,-146.148 -167.81,-208.972c-55.65,-158.891 -204.71,-166.602 -204.71,-166.602Z" style="fill:#00581d;stroke:#fff;stroke-width:37.5px;"/><g transform="matrix(360.222072,0,0,360.222072,2464.672231,2125.912718)"></g><text x="19.125px" y="2125.913px" style="font-family:'MontserratAlternates-ExtraBold', 'Montserrat Alternates';font-weight:800;font-size:360.222px;fill:#00581d;">M<tspan x="439.504px 652.755px 793.602px 927.605px 1163.19px 1395.533px 1482.347px 1750.712px 1983.055px 2214.318px " y="2125.913px 2125.913px 2125.913px 2125.913px 2125.913px 2125.913px 2125.913px 2125.913px 2125.913px 2125.913px ">ertha Naya</tspan></text></g><defs><linearGradient id="_Linear1" x1="0" y1="0" x2="1" y2="0" gradientUnits="userSpaceOnUse" gradientTransform="matrix(529.586,0,0,648.407859,1933.084562,1488.259514)"><stop offset="0" style="stop-color:#00581d;stop-opacity:1"/><stop offset="0.48" style="stop-color:#00581d;stop-opacity:1"/><stop offset="1" style="stop-color:#000;stop-opacity:1"/></linearGradient><linearGradient id="_Linear2" x1="0" y1="0" x2="1" y2="0" gradientUnits="userSpaceOnUse" gradientTransform="matrix(2401.25769,0,0,1697.939195,40.717942,957.482016)"><stop offset="0" style="stop-color:#c66317;stop-opacity:1"/><stop offset="1" style="stop-color:#000;stop-opacity:1"/></linearGradient></defs></svg>