<?xml version="1.0" encoding="UTF-8" standalone="no"?><!DOCTYPE svg PUBLIC "-//W3C//DTD SVG 1.1//EN" "http://www.w3.org/Graphics/SVG/1.1/DTD/svg11.dtd"><svg width="100%" height="100%" viewBox="0 0 2481 3508" version="1.1" xmlns="http://www.w3.org/2000/svg" xmlns:xlink="http://www.w3.org/1999/xlink" xml:space="preserve" xmlns:serif="http://www.serif.com/" style="fill-rule:evenodd;clip-rule:evenodd;stroke-linecap:round;stroke-linejoin:round;stroke-miterlimit:1.5;"><path d="M1820,1784.268c0,0 129.797,127.705 289,80.07c159.203,-47.635 152,-81.338 152,-81.338l-4,490.562c0,0 -6.08,50.198 -77,49.436c-70.92,-0.762 -77,-44.366 -77,-44.366c0,0 67.921,-116.355 55.233,-195.714c-8.909,-55.727 -33.515,-86.681 -64.233,-99.637c-74.463,-31.407 -130,-5.07 -130,-5.07c0,0 -0.294,85.215 -0.104,172.577c0.129,59.219 -1.638,109.446 -5.709,128.132c-4.377,20.09 -24.892,38.178 -65.187,37.74c-39.277,-0.427 -64.657,-15.914 -69.409,-33.627c-3.643,-13.578 -3.047,-116.093 -2.836,-208.077c0.332,-144.553 -0.756,-290.689 -0.756,-290.689Z" style="fill:url(#_Linear1);"/><path id="M" d="M256,2317l6,-858c0,0 -21.56,-322.951 383,-510c404.56,-187.049 262.68,309.778 625,316c306.942,5.271 213.741,-486.576 615,-314c284.172,122.218 356.16,343.626 367.355,473.61c7.796,90.519 1.085,202.404 -7.005,245.655c-37.159,198.685 -423.896,203.162 -426.9,-22.069c-3.077,-230.644 -333.613,-272.185 -333.45,0.804c0.425,715.211 -9,668 -9,668l-434,-3c0,0 -1.209,-322.369 -3.452,-639.395c-1.795,-253.633 -342.625,-284.171 -337.548,10.395c7.811,453.202 0,636 0,636l-445,-4Z" style="fill:url(#_Linear2);"/><path id="M1" serif:id="M" d="M244,2314l6,-858c0,0 -21.56,-322.951 383,-510c404.56,-187.049 262.68,309.778 625,316c306.942,5.271 213.741,-486.576 615,-314c284.172,122.218 356.16,343.626 367.355,473.61c7.796,90.519 1.085,202.404 -7.005,245.655c-37.159,198.685 -423.896,203.162 -426.9,-22.069c-3.077,-230.644 -333.613,-272.185 -333.45,0.804c0.425,715.211 -9,668 -9,668l-434,-3c0,0 -1.209,-322.369 -3.452,-639.395c-1.795,-253.633 -342.625,-284.171 -337.548,10.395c7.811,453.202 0,636 0,636l-445,-4Z" style="fill:url(#_Linear3);"/><path d="M803.513,889.251c0,0 215.261,-40.063 388.487,86.749c32.347,23.68 71,61 71,61c0,0 33.724,-33.901 67.014,-61.6c171.003,-142.279 401.986,-79.4 401.986,-79.4c0,0 -125.472,-1.796 -182,129c-22.368,51.756 -101.265,152.942 -132.435,176.327c-47.602,35.712 -96.507,48.233 -139.565,49.673c-47.75,1.597 -104.546,-4.512 -164.244,-48.964c-59.252,-44.12 -121.431,-121.715 -139.756,-174.036c-46.346,-132.327 -170.487,-138.749 -170.487,-138.749Z" style="fill:url(#_Linear4);stroke:#fff;stroke-width:37.5px;"/><g transform="matrix(339.072195,0,0,339.072195,2272.393394,2684.151714)"></g><text x="259.661px" y="2684.152px" style="font-family:'CalSans-Regular', 'Cal Sans';font-size:339.072px;fill:url(#_Linear5);">Mer<tspan x="873.042px " y="2684.152px ">t</tspan>ha Nay<tspan x="2063.525px " y="2684.152px ">a</tspan></text><defs><linearGradient id="_Linear1" x1="0" y1="0" x2="1" y2="0" gradientUnits="userSpaceOnUse" gradientTransform="matrix(441.049598,0,0,540.00677,1820,2053.003385)"><stop offset="0" style="stop-color:#dd7329;stop-opacity:1"/><stop offset="0.48" style="stop-color:#b33215;stop-opacity:1"/><stop offset="1" style="stop-color:#000;stop-opacity:1"/></linearGradient><linearGradient id="_Linear2" x1="0" y1="0" x2="1" y2="0" gradientUnits="userSpaceOnUse" gradientTransform="matrix(1999.814453,0,0,1414.07703,256,1613.961485)"><stop offset="0" style="stop-color:#00d4ff;stop-opacity:1"/><stop offset="1" style="stop-color:#000;stop-opacity:1"/></linearGradient><linearGradient id="_Linear3" x1="0" y1="0" x2="1" y2="0" gradientUnits="userSpaceOnUse" gradientTransform="matrix(1999.814453,0,0,1414.07703,244,1610.961485)"><stop offset="0" style="stop-color:#c63717;stop-opacity:1"/><stop offset="1" style="stop-color:#000;stop-opacity:1"/></linearGradient><linearGradient id="_Linear4" x1="0" y1="0" x2="1" y2="0" gradientUnits="userSpaceOnUse" gradientTransform="matrix(464.243431,0,0,184.531515,1267.756569,1066.690155)"><stop offset="0" style="stop-color:#dd7329;stop-opacity:1"/><stop offset="1" style="stop-color:#000;stop-opacity:1"/></linearGradient><linearGradient id="_Linear5" x1="0" y1="0" x2="1" y2="0" gradientUnits="userSpaceOnUse" gradientTransform="matrix(1982.216055,0,0,318.388792,276.614451,2595.823407)"><stop offset="0" style="stop-color:#002e37;stop-opacity:1"/><stop offset="0.67" style="stop-color:#1c3134;stop-opacity:1"/><stop offset="0.85" style="stop-color:#6c3b2b;stop-opacity:1"/><stop offset="1" style="stop-color:#cf471f;stop-opacity:1"/></linearGradient></defs></svg>